<?xml version="1.0" encoding="UTF-8"?>
<!DOCTYPE svg PUBLIC "-//W3C//DTD SVG 1.1//EN" "http://www.w3.org/Graphics/SVG/1.1/DTD/svg11.dtd">
<svg xmlns="http://www.w3.org/2000/svg" version="1.1" width="225px" height="225px" style="shape-rendering:geometricPrecision; text-rendering:geometricPrecision; image-rendering:optimizeQuality; fill-rule:evenodd; clip-rule:evenodd" xmlns:xlink="http://www.w3.org/1999/xlink">
<g><path style="opacity:1" fill="#f8f8f9" d="M 94.5,-0.5 C 106.5,-0.5 118.5,-0.5 130.5,-0.5C 182.961,11.4645 213.127,44.1312 221,97.5C 223.38,142.91 205.547,177.744 167.5,202C 121.381,225.025 78.3807,220.359 38.5,188C 3.20496,151.755 -5.29504,109.922 13,62.5C 30.0777,28.3853 57.2443,7.38529 94.5,-0.5 Z"/></g>
<g><path style="opacity:1" fill="#cc281e" d="M 117.5,20.5 C 124.519,20.7232 126.519,23.8899 123.5,30C 116.877,32.6162 113.71,30.4496 114,23.5C 115.145,22.3636 116.312,21.3636 117.5,20.5 Z"/></g>
<g><path style="opacity:1" fill="#123f87" d="M 115.5,10.5 C 116.239,10.369 116.906,10.5357 117.5,11C 110.904,15.5939 105.738,21.4273 102,28.5C 101.503,31.146 101.336,33.8127 101.5,36.5C 115.995,33.6315 128.995,36.7981 140.5,46C 117.95,44.5159 98.2838,51.1826 81.5,66C 74.261,72.5687 67.761,79.7354 62,87.5C 68.5639,62.5384 80.7305,40.7051 98.5,22C 103.887,17.6485 109.553,13.8151 115.5,10.5 Z"/></g>
<g><path style="opacity:1" fill="#123e85" d="M 61.5,57.5 C 62.2389,57.369 62.9056,57.5357 63.5,58C 52.5568,77.4884 50.0568,97.9884 56,119.5C 59.2684,129.356 63.2684,138.689 68,147.5C 49.9349,134.775 36.2682,118.442 27,98.5C 22.4364,87.5876 20.4364,76.2543 21,64.5C 23.1134,73.2052 27.2801,80.7052 33.5,87C 35.3506,87.8372 37.1839,88.6705 39,89.5C 41.4514,82.5964 44.4514,75.9297 48,69.5C 52.0995,64.8918 56.5995,60.8918 61.5,57.5 Z"/></g>
<g><path style="opacity:1" fill="#c62b20" d="M 32.5,66.5 C 39.5195,66.7232 41.5195,69.8899 38.5,76C 31.7525,78.9093 28.5858,76.7426 29,69.5C 30.1451,68.3636 31.3117,67.3636 32.5,66.5 Z"/></g>
<g><path style="opacity:1" fill="#143e84" d="M 117.5,60.5 C 130.837,60.3334 144.171,60.5001 157.5,61C 175.538,62.4517 191.538,68.7851 205.5,80C 198.267,76.771 190.6,74.6044 182.5,73.5C 179.14,73.5089 176.14,74.5089 173.5,76.5C 176.888,82.6071 179.721,88.9404 182,95.5C 182.875,102.341 182.208,109.007 180,115.5C 172.655,94.1554 158.489,79.322 137.5,71C 127.966,67.5999 118.299,64.5999 108.5,62C 111.695,61.8195 114.695,61.3195 117.5,60.5 Z"/></g>
<g><path style="opacity:1" fill="#c9291e" d="M 191.5,87.5 C 199.993,86.4707 202.327,89.6373 198.5,97C 193.31,98.8049 189.976,97.1382 188.5,92C 189.315,90.3566 190.315,88.8566 191.5,87.5 Z"/></g>
<g><path style="opacity:1" fill="#732828" d="M 65.5,102.5 C 94.5077,102.167 123.508,102.5 152.5,103.5C 151.675,104.386 150.675,104.719 149.5,104.5C 148.833,131.167 148.167,131.167 147.5,104.5C 119.813,105.158 92.4796,104.491 65.5,102.5 Z"/></g>
<g><path style="opacity:1" fill="#ac2822" d="M 96.5,107.5 C 108.833,107.5 121.167,107.5 133.5,107.5C 133.5,110.833 133.5,114.167 133.5,117.5C 131.5,117.5 129.5,117.5 127.5,117.5C 115.779,117.887 104.113,117.387 92.5,116C 94.3237,113.848 94.657,111.348 93.5,108.5C 94.791,108.737 95.791,108.404 96.5,107.5 Z"/></g>
<g><path style="opacity:1" fill="#be231c" d="M 101.5,109.5 C 111.653,108.506 121.986,108.172 132.5,108.5C 132.5,111.167 132.5,113.833 132.5,116.5C 122.828,116.666 113.161,116.5 103.5,116C 102.233,114.204 102.233,112.371 103.5,110.5C 103.043,109.702 102.376,109.369 101.5,109.5 Z"/></g>
<g><path style="opacity:1" fill="#942b27" d="M 96.5,107.5 C 95.791,108.404 94.791,108.737 93.5,108.5C 94.657,111.348 94.3237,113.848 92.5,116C 104.113,117.387 115.779,117.887 127.5,117.5C 113.656,118.709 99.656,118.709 85.5,117.5C 85.5,114.167 85.5,110.833 85.5,107.5C 89.1667,107.5 92.8333,107.5 96.5,107.5 Z"/></g>
<g><path style="opacity:1" fill="#1a2474" d="M 106.5,121.5 C 108.369,122.165 110.369,122.831 112.5,123.5C 109.833,124.833 109.833,126.167 112.5,127.5C 112.167,128.167 111.833,128.833 111.5,129.5C 104.245,131.34 103.912,133.674 110.5,136.5C 111.386,137.325 111.719,138.325 111.5,139.5C 110.998,141.085 109.998,141.585 108.5,141C 101.309,134.564 94.3085,127.898 87.5,121C 93.805,121.189 100.138,121.355 106.5,121.5 Z"/></g>
<g><path style="opacity:1" fill="#17357d" d="M 111.5,139.5 C 111.719,138.325 111.386,137.325 110.5,136.5C 103.912,133.674 104.245,131.34 111.5,129.5C 111.833,128.833 112.167,128.167 112.5,127.5C 109.833,126.167 109.833,124.833 112.5,123.5C 110.369,122.831 108.369,122.165 106.5,121.5C 114.864,121.454 123.197,121.287 131.5,121C 125.264,127.74 118.597,133.907 111.5,139.5 Z"/></g>
<g><path style="opacity:1" fill="#143f85" d="M 163.5,101.5 C 174.755,125.627 178.588,150.96 175,177.5C 173.321,184.868 170.655,191.868 167,198.5C 168.859,190.318 169.526,181.984 169,173.5C 168.07,170.638 166.403,168.305 164,166.5C 153.964,177.624 141.464,182.458 126.5,181C 146.603,169.655 158.436,152.488 162,129.5C 163.128,120.2 163.628,110.866 163.5,101.5 Z"/></g>
<g><path style="opacity:1" fill="#c92a21" d="M 43.5,164.5 C 50.8646,164.653 52.8646,167.82 49.5,174C 42.8769,176.616 39.7103,174.45 40,167.5C 41.1451,166.364 42.3117,165.364 43.5,164.5 Z"/></g>
<g><path style="opacity:1" fill="#113e86" d="M 107.5,169.5 C 112.375,170.241 117.375,171.075 122.5,172C 120.35,173.59 118.017,174.257 115.5,174C 117.966,173.07 117.799,172.237 115,171.5C 111.66,173.545 108.16,174.378 104.5,174C 105.5,175 106.5,176 107.5,177C 106.551,177.617 105.718,177.451 105,176.5C 103.559,178.305 103.392,180.305 104.5,182.5C 82.7796,189.331 61.1129,189.165 39.5,182C 48.5768,182.266 57.2435,180.599 65.5,177C 66.6872,175.981 67.6872,174.814 68.5,173.5C 63.4882,168.988 58.6549,164.321 54,159.5C 49.9336,153.382 47.6003,146.716 47,139.5C 62.9661,157.9 83.1327,167.9 107.5,169.5 Z"/></g>
<g><path style="opacity:1" fill="#194c8f" d="M 104.5,182.5 C 103.392,180.305 103.559,178.305 105,176.5C 105.718,177.451 106.551,177.617 107.5,177C 106.5,176 105.5,175 104.5,174C 108.16,174.378 111.66,173.545 115,171.5C 117.799,172.237 117.966,173.07 115.5,174C 118.017,174.257 120.35,173.59 122.5,172C 117.375,171.075 112.375,170.241 107.5,169.5C 116.188,169.368 124.855,169.202 133.5,169C 124.323,174.589 114.656,179.089 104.5,182.5 Z"/></g>
<g><path style="opacity:1" fill="#cb281d" d="M 154.5,181.5 C 159.093,180.418 162.093,182.085 163.5,186.5C 160.852,191.858 157.019,192.858 152,189.5C 150.837,186.029 151.67,183.362 154.5,181.5 Z"/></g>
</svg>
